<svg xmlns="http://www.w3.org/2000/svg" viewBox="0 0 520 96"><defs><style>.cls-1{fill:#7a6d64;}</style></defs><title>global_primarylogo_img</title><g id="accountpane_rightarrowbutton_img"><path class="cls-1" d="M57.72,33H44.81v30.3h7.3V54.82h5.61c7.74,0,12.18-4.08,12.18-11.19C69.9,36.89,65.46,33,57.72,33Zm-5.61,6.13h5.27c2.55,0,5.57.82,5.57,4.69s-3,4.81-5.57,4.81H52.11Z"/><rect class="cls-1" x="73.79" y="33.01" width="7.28" height="30.3"/><path class="cls-1" d="M101.39,32.81c-9.26,0-16.24,6.59-16.24,15.36s7,15.44,16.24,15.44S117.65,57,117.65,48.17,110.66,32.81,101.39,32.81Zm.09,24.38a9,9,0,0,1-8.88-9,8.8,8.8,0,1,1,8.88,9Z"/><polygon class="cls-1" points="149.18 33.01 149.18 63.31 142.64 63.31 142.55 63.2 128.67 44.82 128.67 63.31 121.69 63.31 121.69 33.01 128.22 33.01 128.32 33.13 142.23 51.56 142.23 33.01 149.18 33.01"/><polygon class="cls-1" points="179.01 57.19 179.01 63.31 155.34 63.31 155.34 33.01 178.55 33.01 178.55 39.14 162.62 39.14 162.62 45.03 176.96 45.03 176.96 51.17 162.62 51.17 162.62 57.19 179.01 57.19"/><polygon class="cls-1" points="207.56 57.19 207.56 63.31 183.89 63.31 183.89 33.01 207.1 33.01 207.1 39.14 191.17 39.14 191.17 45.03 205.53 45.03 205.53 51.17 191.17 51.17 191.17 57.19 207.56 57.19"/><path class="cls-1" d="M232.68,53.33c3.56-1.8,5.42-5.14,5.42-9.7,0-6.74-4.54-10.62-12.47-10.62H212.44v30.3h7.28V54.82h6.39l4.71,8.49h8.29Zm-13-14.19h5.91c2.53,0,5.55.82,5.55,4.69s-3,4.81-5.55,4.81h-5.91Z"/><path class="cls-1" d="M266.16,33.67c6,0,9.57,2.75,9.57,7.4a6.44,6.44,0,0,1-5.46,6.69c4.27.63,6.77,3.43,6.77,7.49,0,5-4,8-10.67,8h-12.7V33.67Zm-9.1,12.78H266c4,0,6.31-1.74,6.31-4.83s-2.33-4.7-6.31-4.7h-8.93Zm0,13.63H266c4.83,0,7.62-1.9,7.62-5.29,0-3.22-2.79-5.12-7.62-5.12h-8.93Z"/><path class="cls-1" d="M286.73,55.8l-3.3,7.5h-3.6l13.29-29.63h3.52L309.89,63.3H306.2l-3.3-7.5Zm8-18.28-6.61,15h13.29Z"/><path class="cls-1" d="M335.87,63.3,318.1,39.51V63.3h-3.39V33.67h3.51L336,57.5V33.67h3.35V63.3Z"/><path class="cls-1" d="M357.67,49.24l-5.75,6.31V63.3h-3.39V33.67h3.39v17l15.91-17h4L360.13,46.53,372.74,63.3h-4.15Z"/><path class="cls-1" d="M475.19,57.67C424,56.07,410.46,73,398.39,85c9.1-15.83,28.87-32.62,69.9-31a25.08,25.08,0,0,1-.89-4.77c-2.09-1.08-17.89-5.9-20.53-15.42,4.68,7.06,11.71,10,24.25,13.11l.35.08v.35C471.47,47.44,471.91,54.5,475.19,57.67Z"/><path class="cls-1" d="M425.64,31.79c-2.9,3.74-3.26,6.07-3.59,10.37C409,46.31,396.1,53.28,387.38,64.89c5.69-10.44,15.45-20.17,30.72-26.63a17.54,17.54,0,0,1,.5-2C390.4,33,381,21,380,11,391.71,33.84,424.19,31.7,425.64,31.79Z"/><polygon class="cls-1" points="442.17 38.94 441.49 42.48 431.91 42.68 438.87 37.98 442.17 38.94"/></g></svg>